<svg viewBox="0 0 34 34" fill="none" xmlns="http://www.w3.org/2000/svg"><g fill="#DC7000" clip-path="url(#a)"><path d="M29.72 2.18h-25.34a3.86 3.86 0 0 0-3.85 3.85v22.04a3.86 3.86 0 0 0 3.85 3.85h25.34a3.86 3.86 0 0 0 3.86-3.85v-22.04a3.86 3.86 0 0 0-3.86-3.85Zm2.75 25.89a2.76 2.76 0 0 1-2.75 2.75h-25.34a2.76 2.76 0 0 1-2.75-2.75v-22.04a2.76 2.76 0 0 1 2.75-2.75h25.34a2.76 2.76 0 0 1 2.75 2.75v22.04Z"/><path d="M29.72 6.58h-25.34c-.91 0-1.65.74-1.65 1.66v19.83c0 .91.74 1.65 1.65 1.65h25.34c.91 0 1.65-.74 1.65-1.65v-19.83c0-.92-.74-1.66-1.65-1.66Zm-12.67 10.95-6-3.23 6-3.23 6 3.23-6 3.23Zm6.61-2.31v6.46l-6.06 3.26v-6.46l6.06-3.26Zm-7.16 3.26v6.46l-6.06-3.26v-6.46l6.06 3.26Zm-12.67-10.24c0-.3.25-.55.55-.55h12.12v2.42l-6.87 3.7-.02.01a.55.55 0 0 0-.27.48v4.61l-5.51 2.76v-13.43Zm26.44 19.83c0 .3-.25.55-.55.55h-25.34a.55.55 0 0 1-.55-.55v-5.17l5.5-2.75v1.86c0 .2.12.39.3.48l7.16 3.86c.16.09.36.09.52 0l7.16-3.86c.18-.1.3-.28.3-.48v-1.86l5.5 2.75v5.17Zm0-6.4-5.5-2.76v-4.61c0-.2-.1-.38-.28-.48h-.02l-6.87-3.71v-2.42h12.12c.3 0 .55.24.55.55v13.43Zm-26.44-16.19a.55.55 0 1 0 0-1.1.55.55 0 0 0 0 1.1Zm2.2 0a.55.55 0 1 0 0-1.1.55.55 0 0 0 0 1.1Zm2.21 0a.55.55 0 1 0 0-1.1.55.55 0 0 0 0 1.1Zm13.76 0h7.72a.55.55 0 1 0 0-1.1h-7.71a.55.55 0 1 0 0 1.1Z"/></g><defs><clipPath id="a"><path fill="#fff" transform="translate(.525 .525)" d="M0 0h33.05v33.05h-33.05z"/></clipPath></defs></svg>