<svg viewBox="0 0 25 25" fill="none" xmlns="http://www.w3.org/2000/svg"><g clip-path="url(#a)"><path d="M21.82 14.64c-.28-3.73-2.02-6.07-3.55-8.13-1.42-1.9-2.64-3.56-2.64-5.99a.52.52 0 0 0-.83-.42 13.25 13.25 0 0 0-4.89 7.06 23.07 23.07 0 0 0-.53 5.29c-2.13-.46-2.6-3.63-2.61-3.67a.52.52 0 0 0-.75-.4c-.1.06-2.73 1.4-2.88 6.71l-.02.53a9.4 9.4 0 0 0 9.38 9.38h.02a9.39 9.39 0 0 0 9.36-9.38c0-.26-.06-.98-.06-.98Zm-9.32 9.32c-1.72 0-3.13-1.5-3.13-3.33v-.2c.03-.78.18-1.3.34-1.66.3.65.84 1.25 1.72 1.25.29 0 .52-.24.52-.52 0-.74.01-1.6.2-2.37.16-.69.56-1.42 1.05-2 .22.76.66 1.37 1.08 1.97a5.93 5.93 0 0 1 1.35 3.53c0 1.83-1.4 3.33-3.13 3.33Z" fill="#fff"/></g><defs><clipPath id="a"><path fill="#fff" d="M0 0h25v25h-25z"/></clipPath></defs></svg>