<svg viewBox="0 0 13 13" fill="none" xmlns="http://www.w3.org/2000/svg"><g clip-path="url(#a)" fill="#000"><path d="M9.48 0h-5.96a3.52 3.52 0 0 0-3.52 3.52v5.96a3.52 3.52 0 0 0 3.52 3.52h5.96a3.52 3.52 0 0 0 3.52-3.52v-5.96a3.52 3.52 0 0 0-3.52-3.52Zm2.76 9.48a2.76 2.76 0 0 1-2.76 2.76h-5.96a2.76 2.76 0 0 1-2.76-2.76v-5.96a2.76 2.76 0 0 1 2.76-2.76h5.96a2.76 2.76 0 0 1 2.76 2.76v5.96Z"/><path d="M6.5 2.95a3.56 3.56 0 1 0 0 7.11 3.56 3.56 0 0 0 0-7.11Zm0 6.34a2.8 2.8 0 1 1 0-5.59 2.8 2.8 0 0 1 0 5.6Zm3.64-7.61a1.05 1.05 0 1 0 0 2.1 1.05 1.05 0 0 0 0-2.1Zm0 1.34a.29.29 0 1 1 0-.58.29.29 0 0 1 0 .58Z"/></g><defs><clipPath id="a"><path fill="#fff" d="M0 0h13v13h-13z"/></clipPath></defs></svg>