<svg viewBox="0 0 33 33" fill="none" xmlns="http://www.w3.org/2000/svg"><g clip-path="url(#a)" fill="#DC7000"><path d="M3.19 13.3c.14 0 .28-.05.38-.15l2.13-2.13a.53.53 0 1 0-.76-.76l-2.13 2.13a.53.53 0 0 0 .38.92Zm0 3.2c.14 0 .28-.05.38-.15l5.32-5.33a.53.53 0 1 0-.76-.76l-5.32 5.33a.53.53 0 0 0 .38.91Z"/><path d="M30.88.53h-13.85c-.88 0-1.6.71-1.6 1.6v5.85h-12.24a2.66 2.66 0 0 0-2.66 2.66v13.85a2.66 2.66 0 0 0 2.66 2.66h5.86v2.13h-1.6a1.6 1.6 0 1 0 0 3.2h23.43c.88 0 1.6-.72 1.6-1.6v-28.76c0-.88-.72-1.6-1.6-1.6Zm-27.7 8.52h19.18c.88 0 1.6.71 1.6 1.6v12.77h-22.37v-12.78c0-.88.72-1.6 1.6-1.6Zm-1.59 15.44h22.36c0 .88-.71 1.6-1.6 1.6h-19.16a1.6 1.6 0 0 1-1.6-1.6Zm8.52 2.66h5.33v2.13h-5.33v-2.13Zm6.92 4.26h-9.58a.53.53 0 1 1 0-1.07h10.65a.53.53 0 1 1 0 1.07h-1.07Zm14.38-.53c0 .3-.24.53-.53.53h-11.28a1.6 1.6 0 0 0-1.5-2.13h-1.6v-2.13h5.86c1.47 0 2.66-1.2 2.66-2.66v-13.85c0-1.47-1.2-2.66-2.66-2.66h-5.86v-5.86c0-.3.24-.53.53-.53h13.85c.3 0 .53.24.53.53v28.76Z"/><path d="M29.28 3.19h-10.65c-.59 0-1.07.47-1.07 1.06v1.07c0 .59.48 1.06 1.07 1.06h10.65c.59 0 1.06-.47 1.06-1.06v-1.07c0-.59-.47-1.06-1.06-1.06Zm-10.65 2.13v-1.07h10.65v1.07h-10.65Zm9.58 5.86a1.6 1.6 0 1 0 0-3.2 1.6 1.6 0 0 0 0 3.2Zm0-2.13a.53.53 0 1 1 0 1.06.53.53 0 0 1 0-1.06Zm1.6 4.79a1.6 1.6 0 1 0-3.2 0 1.6 1.6 0 0 0 3.2 0Zm-1.6.53a.53.53 0 1 1 0-1.06.53.53 0 0 1 0 1.06Zm-6.91 13.84c-.3 0-.54.24-.54.54v1.06a.53.53 0 1 0 1.06 0v-1.06c0-.3-.23-.54-.53-.54Zm2.12 0c-.3 0-.53.24-.53.54v1.06a.53.53 0 1 0 1.06 0v-1.06c0-.3-.23-.54-.53-.54Zm2.13 0c-.3 0-.53.24-.53.54v1.06a.53.53 0 1 0 1.06 0v-1.06c0-.3-.23-.54-.53-.54Zm2.13 0c-.3 0-.53.24-.53.54v1.06a.53.53 0 1 0 1.06 0v-1.06c0-.3-.23-.54-.53-.54Zm2.13 0c-.3 0-.53.24-.53.54v1.06a.53.53 0 1 0 1.06 0v-1.06c0-.3-.23-.54-.53-.54Z"/></g><defs><clipPath id="a"><path fill="#fff" transform="translate(.525 .525)" d="M0 0h31.95v31.95h-31.95z"/></clipPath></defs></svg>