<svg viewBox="0 0 30 30" fill="none" xmlns="http://www.w3.org/2000/svg"><g clip-path="url(#a)" fill="#fff"><path d="M10.08 12.35a2.64 2.64 0 0 0 0-3.73l-3.62-3.62a2.66 2.66 0 0 0-4 .3l-.28.4 7.27 7.27.63-.62Zm14.92 11.19-3.62-3.62a2.64 2.64 0 0 0-3.73 0l-.62.63 7.27 7.27.39-.27a2.66 2.66 0 0 0 .3-4Zm-10.46-1.6c-.7 0-1.36-.28-1.86-.77l-3.85-3.85a2.62 2.62 0 0 1-.51-3l-7.03-7.03a13.3 13.3 0 0 0 2.57 15.06l3.79 3.79a13.22 13.22 0 0 0 15.06 2.57l-7.03-7.03c-.35.17-.74.26-1.14.26Zm3.16-21.94a.88.88 0 0 0 0 1.76c5.81 0 10.54 4.73 10.54 10.54a.88.88 0 0 0 1.76 0c0-6.78-5.52-12.3-12.3-12.3Zm0 12.3a.88.88 0 0 0 1.75 0c0-.96-.79-1.75-1.75-1.75a.88.88 0 1 0 0 1.75Zm0-3.51a3.52 3.52 0 0 1 3.51 3.51.88.88 0 0 0 1.76 0c0-2.9-2.37-5.27-5.27-5.27a.88.88 0 0 0 0 1.76Z"/><path d="M17.7 3.52a.88.88 0 0 0 0 1.75 7.04 7.04 0 0 1 7.03 7.03.88.88 0 0 0 1.75 0 8.8 8.8 0 0 0-8.78-8.78Z"/></g><defs><clipPath id="a"><path fill="#fff" d="M0 0h30v30h-30z"/></clipPath></defs></svg>