<svg viewBox="0 0 31 31" fill="none" xmlns="http://www.w3.org/2000/svg"><g clip-path="url(#a)" fill="#DC7000"><path d="M21.74.63h-12.48a2.2 2.2 0 0 0-2.19 2.18v25.38c0 1.2.98 2.18 2.19 2.18h12.48a2.2 2.2 0 0 0 2.19-2.18v-25.38c0-1.2-.98-2.18-2.19-2.18Zm-13.68 3.96h14.88v18.84h-14.88v-18.84Zm1.2-2.97h12.48c.66 0 1.2.53 1.2 1.2v.78h-14.88v-.79c0-.66.54-1.2 1.2-1.2Zm12.48 27.76h-12.48a1.2 1.2 0 0 1-1.2-1.2v-3.76h14.88v3.77c0 .66-.54 1.2-1.2 1.2Z"/><path d="M15.5 24.92a1.99 1.99 0 1 0 0 3.97 1.99 1.99 0 0 0 0-3.97Zm0 2.97a1 1 0 1 1 0-1.98 1 1 0 0 1 0 1.98Zm-1.98-24.79h1.98a.5.5 0 1 0 0-.99h-1.98a.5.5 0 1 0 0 1Zm3.47 0h.5a.5.5 0 1 0 0-.99h-.5a.5.5 0 1 0 0 1Zm11.71-.2a.5.5 0 1 0-.7.7 4.76 4.76 0 0 1 0 6.71.5.5 0 1 0 .7.7 5.75 5.75 0 0 0 0-8.12Z"/><path d="M26.6 4.02a.5.5 0 1 0-.7.7 3.23 3.23 0 0 1 0 4.6.5.5 0 1 0 .7.7 4.21 4.21 0 0 0 0-6Zm-23.6-.42a.5.5 0 1 0-.7-.7 5.75 5.75 0 0 0 0 8.11.5.5 0 0 0 .7 0c.2-.2.2-.5 0-.7a4.76 4.76 0 0 1 0-6.72Z"/><path d="M5.1 3.88a.5.5 0 0 0-.7 0 4.21 4.21 0 0 0 0 6 .5.5 0 0 0 .7 0 .5.5 0 0 0 0-.7 3.23 3.23 0 0 1 0-4.6.5.5 0 0 0 0-.7Z"/></g><defs><clipPath id="a"><path fill="#fff" transform="translate(.627 .627)" d="M0 0h29.75v29.75h-29.75z"/></clipPath></defs></svg>