<svg viewBox="0 0 32 32" fill="none" xmlns="http://www.w3.org/2000/svg"><g fill="#DC7000" clip-path="url(#a)"><path d="M18.57 23.9a8.33 8.33 0 0 1-5.24 0 .9.9 0 1 0-.57 1.72 10.12 10.12 0 0 0 6.38 0 .9.9 0 1 0-.57-1.71Z"/><path d="M26.48 6.53a5.74 5.74 0 0 0-5.7-4.93h-1.02v-.07c0-.5-.4-.9-.9-.9h-5.81c-.5 0-.9.4-.9.9v.07h-1.04a5.74 5.74 0 0 0-5.69 4.93 3.81 3.81 0 0 0-2.96 3.71v7.75a3.8 3.8 0 0 0 2.94 3.7 10.6 10.6 0 0 0 21.1 0 3.81 3.81 0 0 0 2.94-3.7v-7.75a3.8 3.8 0 0 0-2.96-3.7Zm-6.72-3.13h1.03c2.56 0 3.61 2.1 3.83 3.04h-4.86v-3.04Zm-5.81-.97h4v4h-4v-4Zm-2.84.97h1.03v3.04h-4.86a3.94 3.94 0 0 1 3.83-3.04Zm4.84 26.27a8.78 8.78 0 0 1-8.73-7.88h4.46a4.24 4.24 0 0 0 2.99-1.24 1.85 1.85 0 0 1 2.58.01 4.24 4.24 0 0 0 2.97 1.23h4.46a8.79 8.79 0 0 1-8.73 7.88Zm11.68-11.68a2 2 0 0 1-2 2h-5.4a2.42 2.42 0 0 1-1.7-.7 3.67 3.67 0 0 0-5.17 0c-.45.45-1.06.7-1.68.7h-5.41a2 2 0 0 1-2-2v-7.75c0-1.1.9-2 2-2h19.36a2 2 0 0 1 2 2v7.75Z"/></g><defs><clipPath id="a"><path fill="#fff" transform="translate(.525 .627)" d="M0 0h30.85v30.85h-30.85z"/></clipPath></defs></svg>